<svg width="796" height="952" viewBox="0 0 796 952" fill="none" xmlns="http://www.w3.org/2000/svg">
<path d="M215.9 718.4L216.4 637L207.7 628.5L2.7998 429.4V299.8L104.7 203V428.4L263.2 571.3L318.6 621.2L318.9 814.6L215.9 718.4Z" fill="white" stroke="#0F0F0F" stroke-width="5" stroke-miterlimit="10"/>
<path d="M263.2 452.5V549.7L122 420.1L122.4 295.6L221.7 196.5L222.7 418.2L263.2 452.5Z" fill="white" stroke="#0F0F0F" stroke-width="5" stroke-miterlimit="10"/>
<path d="M375.3 6.40002L373.4 670.6L318.6 621.2L263.2 571.3V452.5L261.9 110.8L375.3 6.40002Z" fill="white" stroke="#0F0F0F" stroke-width="5" stroke-miterlimit="10"/>
<path d="M216.4 637L215.9 718.4L214.3 945.6L108.2 851.4V716.7L207.7 628.5L216.4 637Z" fill="white" stroke="#0F0F0F" stroke-width="5" stroke-miterlimit="10"/>
<path d="M580.1 718.4L579.6 637L588.3 628.5L793.2 429.4V299.8L691.3 203V428.4L532.8 571.3L477.4 621.2L477.1 814.6L580.1 718.4Z" fill="white" stroke="#0F0F0F" stroke-width="5" stroke-miterlimit="10"/>
<path d="M532.8 452.5V549.7L674 420.1L673.6 295.6L574.3 196.5L573.3 418.2L532.8 452.5Z" fill="white" stroke="#0F0F0F" stroke-width="5" stroke-miterlimit="10"/>
<path d="M420.7 6.40002L422.6 670.6L477.4 621.2L532.8 571.3V452.5L534.1 110.8L420.7 6.40002Z" fill="white" stroke="#0F0F0F" stroke-width="5" stroke-miterlimit="10"/>
<path d="M579.6 637L580.1 718.4L581.7 945.6L687.8 851.4V716.7L588.3 628.5L579.6 637Z" fill="white" stroke="#0F0F0F" stroke-width="5" stroke-miterlimit="10"/>
</svg>
