<?xml version="1.0" standalone="no"?>
<!DOCTYPE svg PUBLIC "-//W3C//DTD SVG 20010904//EN"
 "http://www.w3.org/TR/2001/REC-SVG-20010904/DTD/svg10.dtd">
<svg version="1.0" xmlns="http://www.w3.org/2000/svg"
 width="300.000000pt" height="300.000000pt" viewBox="0 0 300.000000 300.000000"
 preserveAspectRatio="xMidYMid meet">
<metadata>
Created by potrace 1.14, written by Peter Selinger 2001-2017
</metadata>
<g transform="translate(0.000000,300.000000) scale(0.100000,-0.100000)"
fill="#000000" stroke="none">
<path d="M0 1500 l0 -1500 1500 0 1500 0 0 1500 0 1500 -1500 0 -1500 0 0
-1500z m1430 375 c0 -487 -3 -885 -6 -885 -3 0 -68 57 -145 126 l-139 126 0
632 1 631 137 127 c75 70 140 127 145 127 4 1 7 -397 7 -884z m301 750 l142
-130 -6 -410 c-4 -225 -7 -509 -8 -630 l0 -220 -137 -122 c-75 -67 -138 -121
-138 -120 -1 1 -5 400 -9 886 -5 602 -4 882 3 880 6 -2 75 -62 153 -134z
m-666 -1015 l55 -45 0 -123 0 -124 -182 169 -183 170 -3 163 -3 164 128 128
128 128 3 -292 2 -293 55 -45z m1062 508 l123 -123 0 -170 0 -170 -183 -167
-182 -166 -3 116 -3 117 55 50 56 50 0 293 c0 160 3 292 7 292 4 0 63 -55 130
-122z m-1437 -196 l0 -298 295 -264 294 -265 1 -248 c0 -153 -4 -247 -10 -245
-5 2 -65 55 -134 118 l-125 115 -1 115 0 115 -290 280 -290 280 0 180 0 180
122 117 c68 64 126 117 131 118 4 0 7 -134 7 -298z m1803 138 l87 -85 0 -171
0 -171 -295 -287 -295 -288 0 -112 0 -112 -112 -104 c-62 -58 -121 -111 -130
-119 -17 -13 -18 0 -18 237 l0 251 295 266 295 266 0 296 0 297 43 -39 c23
-22 81 -78 130 -125z m-1505 -1417 l-3 -411 -137 122 -138 121 0 177 0 177
133 120 c72 66 135 116 140 112 4 -4 6 -192 5 -418z m1205 278 l97 -86 0 -181
0 -181 -131 -117 c-73 -64 -136 -116 -140 -116 -10 0 -12 813 -3 823 4 4 23
-8 43 -25 20 -17 80 -70 134 -117z"/>
</g>
</svg>
